<svg xmlns="http://www.w3.org/2000/svg" viewBox="0 0 487.34 226.91"><defs><style>.cls-1{fill:#fff;}.cls-2{fill:#dc202a;}.cls-3{fill:#343638;}.cls-4{fill:#3994c2;}</style></defs><g id="logo"><rect class="cls-1" x="38.17" y="50.04" width="362.71" height="118.85" rx="11.92"/><rect class="cls-2" x="276.89" y="33.15" width="169.33" height="155.74" rx="11.07"/><path class="cls-3" d="M151.6,157.92V62.49h18.83v76.8h21.7v18.63Z"/><path class="cls-3" d="M201.11,157.92l22.23-95.43h19.93l21.18,95.43h-19l-3.2-16.73H223.08l-3,16.73Zm25.43-31.57h12.68q-2-10-3.53-20.95T233,82.29q-1.44,10.72-3,21.74T226.54,126.35Z"/><path class="cls-1" d="M320.48,171.29V69.81H308.91V49.75h34.88V171.29Z"/><path class="cls-1" d="M362.39,171.29,400.76,69.81H364.14V49.75h66.43L386.45,171.29Z"/><path class="cls-4" d="M74.17,101.39c-.17.87-.32,1.74-.52,2.6C73.85,103.13,74,102.26,74.17,101.39Z"/><path class="cls-4" d="M74.72,98.36l0,.2Z"/><path class="cls-4" d="M74.69,98.56c-.13,1-.34,1.89-.52,2.83C74.35,100.45,74.54,99.51,74.69,98.56Z"/><path class="cls-4" d="M301.74,98.36c0,.07,0,.13,0,.2S301.73,98.43,301.74,98.36Z"/><rect class="cls-3" x="106.98" y="67.28" width="17.18" height="84.39"/><rect class="cls-3" x="73" y="67.28" width="17.18" height="84.39"/><rect class="cls-3" x="89.99" y="50.29" width="17.18" height="84.39" transform="translate(6.11 191.06) rotate(-90)"/><rect class="cls-3" x="89.99" y="84.27" width="17.18" height="84.39" transform="translate(-27.87 225.04) rotate(-90)"/></g></svg>